<svg id="Layer_1" data-name="Layer 1" xmlns="http://www.w3.org/2000/svg" viewBox="0 0 379.28 110.84"><defs><style>.cls-1{font-size:74px;fill:#414042;font-family:AvenirNext-Bold, Avenir Next;font-weight:700;letter-spacing:0.01em;}.cls-2{fill:#f9ed32;}.cls-3{fill:#4d918f;}.cls-4{fill:#91bf9b;}.cls-5{fill:#2eb290;}</style></defs><title>bubbles-logo</title><text class="cls-1" transform="translate(79.8 74.88)">Bubbles</text><path class="cls-2" d="M315.94,269.06a9.45,9.45,0,0,0-14.77-8.85,26.81,26.81,0,0,1,7.15,17.07A9.47,9.47,0,0,0,315.94,269.06Z" transform="translate(-240 -210.15)"/><path class="cls-3" d="M272.43,253.26a16.1,16.1,0,0,0-1.27-5,19.12,19.12,0,0,1-13.76-9.78,16.23,16.23,0,0,0-3,32.32c.49.05,1,.08,1.45.1A26.79,26.79,0,0,1,272.43,253.26Z" transform="translate(-240 -210.15)"/><path class="cls-4" d="M297.14,266.91a9.45,9.45,0,0,1,4-6.7,26.77,26.77,0,0,0-28.74-6.95,17.17,17.17,0,0,1-.05,3.2,16.25,16.25,0,0,1-16.53,14.39,27.3,27.3,0,0,0-.93,4.56,26.8,26.8,0,1,0,53.25,6.09,27.25,27.25,0,0,0,.15-4.22,9.68,9.68,0,0,1-2.85.1A9.46,9.46,0,0,1,297.14,266.91Zm-21.93,31.67a13.64,13.64,0,1,1,15.09-12A13.65,13.65,0,0,1,275.21,298.58Z" transform="translate(-240 -210.15)"/><path class="cls-5" d="M271.16,248.21l.9.12a19.15,19.15,0,1,0-14.66-9.9q.35,0,.69.06A16.22,16.22,0,0,1,271.16,248.21Zm5.43-34.9A12.31,12.31,0,1,1,263,224.15,12.32,12.32,0,0,1,276.59,213.31Z" transform="translate(-240 -210.15)"/></svg>